<svg width="20" height="20" viewBox="0 0 20 20" fill="none" xmlns="http://www.w3.org/2000/svg">
<path d="M18.2005 18.402L19.7809 12.1649L17.6397 10.0001L19.7808 7.8351L18.2004 1.5979L12.0316 0L9.89056 2.165L7.74918 0.0001L1.5804 1.5981L0 7.8351L2.14148 9.9999L9.89046e-05 12.165L1.5805 18.4021L7.74928 20L9.89056 17.835L12.0317 19.9999L18.2005 18.402ZM11.1141 16.5979L13.1533 14.5361L15.7479 17.1595L12.5012 18.0005L11.1141 16.5979ZM7.85135 6.7011L9.89066 4.6393L11.9299 6.701L9.89056 8.7628L7.85135 6.7011ZM8.66701 10L6.6277 12.0618L4.58848 10L6.6277 7.9382L8.66701 10ZM13.1534 7.9381L15.1926 10L13.1533 12.0618L11.1141 10L13.1534 7.9381ZM11.9298 13.299L9.89056 15.3608L7.85125 13.2989L9.89056 11.2371L11.9298 13.299ZM7.27968 18.0005L4.03294 17.1595L6.6277 14.536L8.66701 16.5979L7.27968 18.0005ZM3.36493 11.2371L5.40415 13.2989L2.80939 15.9224L1.9776 12.6398L3.36493 11.2371ZM2.80939 4.0774L5.40425 6.701L3.36493 8.7629L1.9776 7.3601L2.80939 4.0774ZM8.66711 3.4021L6.6278 5.464L4.03313 2.8405L7.27987 1.9995L8.66711 3.4021ZM12.5014 1.9995L15.7481 2.8405L13.1533 5.4639L11.1141 3.4021L12.5014 1.9995ZM16.4162 8.7629L14.3769 6.701L16.9715 4.0777L17.8033 7.3604L16.4162 8.7629ZM16.9715 15.9224L14.3769 13.299L16.4162 11.2372L17.8033 12.6398L16.9715 15.9224Z" fill="white"/>
</svg>
