<svg width="65" height="24" viewBox="0 0 65 24" fill="none" xmlns="http://www.w3.org/2000/svg">
<path d="M22.514 22.0824L24.4225 14.5979L21.8369 12.0001L24.4223 9.40212L22.5139 1.91748L15.0648 0L12.4793 2.598L9.89345 0.00012L2.44431 1.91772L0.535889 9.40212L3.12185 11.9999L0.536008 14.598L2.44443 22.0825L9.89357 24L12.4793 21.402L15.0649 23.9999L22.514 22.0824ZM13.9568 19.9175L16.4193 17.4433L19.5523 20.5914L15.6318 21.6006L13.9568 19.9175ZM10.0168 8.04132L12.4794 5.56716L14.9419 8.0412L12.4793 10.5154L10.0168 8.04132ZM11.0018 12L8.5392 14.4742L6.07674 12L8.5392 9.52584L11.0018 12ZM16.4194 9.52572L18.8818 12L16.4193 14.4742L13.9568 12L16.4194 9.52572ZM14.9418 15.9588L12.4793 18.433L10.0167 15.9587L12.4793 13.4845L14.9418 15.9588ZM9.3265 21.6006L5.40588 20.5914L8.5392 17.4432L11.0018 19.9175L9.3265 21.6006ZM4.59923 13.4845L7.0617 15.9587L3.92838 19.1069L2.92395 15.1678L4.59923 13.4845ZM3.92838 4.89288L7.06182 8.0412L4.59923 10.5155L2.92395 8.83212L3.92838 4.89288ZM11.0019 4.08252L8.53932 6.5568L5.40612 3.4086L9.32674 2.3994L11.0019 4.08252ZM15.6321 2.3994L19.5526 3.4086L16.4193 6.55668L13.9568 4.08252L15.6321 2.3994ZM20.3594 10.5155L17.8968 8.0412L21.03 4.89324L22.0344 8.83248L20.3594 10.5155ZM21.03 19.1069L17.8968 15.9588L20.3594 13.4846L22.0344 15.1678L21.03 19.1069Z" fill="#F9FAFB"/>
<path d="M31.5352 11.6429H30.6097V9.53946H31.4414C32.4521 9.53946 32.9576 9.8925 32.9576 10.5979C32.9576 11.2948 32.4837 11.6429 31.5352 11.6429ZM34.0985 8.17794C33.5617 7.72854 32.6448 7.50414 31.3476 7.50414H28.4225V16.4965H30.6097V13.679H31.5891C32.779 13.679 33.6512 13.4181 34.2056 12.8965C34.8315 12.3127 35.145 11.5354 35.145 10.5643C35.145 9.5577 34.7963 8.76234 34.0985 8.17794ZM38.8888 7.50378H36.6077V16.4967H41.5326V14.4608H38.889L38.8888 7.50378ZM45.9737 13.369L46.913 10.295L47.8385 13.369H45.9737ZM46.0003 7.50378L42.4178 16.4967H44.8734L45.3431 15.1892H48.4559L48.885 16.4967H51.3683L47.8119 7.50378H46.0003ZM52.5085 16.4967H54.7896V7.50378H52.5085V16.4967ZM59.996 14.4609H59.0161V9.53946H60.0093C60.7072 9.53946 61.2434 9.75642 61.6193 10.1897C61.9951 10.6237 62.1828 11.2385 62.1828 12.0334C62.1828 13.6521 61.4535 14.4609 59.996 14.4609ZM63.6457 9.18906C63.3419 8.7573 62.9793 8.41182 62.5592 8.15094C61.8699 7.71918 60.9305 7.5033 59.7407 7.5033H56.7351V16.4962H60.2509C61.5209 16.4962 62.5412 16.0833 63.3105 15.2563C64.0797 14.4292 64.4641 13.3328 64.4641 11.9663C64.4639 10.879 64.191 9.95346 63.6457 9.18906Z" fill="#F9FAFB"/>
</svg>
